<svg id="레이어_1" data-name="레이어 1" xmlns="http://www.w3.org/2000/svg" viewBox="0 0 473 473"><defs><style>.cls-1{fill:#232323;}.cls-2{fill:#999;}.cls-3{fill:#707070;}.cls-4{fill:#fff;}.cls-5{fill:none;stroke:#fff;stroke-miterlimit:10;stroke-width:25px;stroke-dasharray:65;}</style></defs><title>char-undefined</title><path class="cls-1" d="M414.36,243.41c-2.84-26.92-77.93-93.51-77.93-93.51-37-43.75-69.59-48.42-81.56-48.47-3.25,0-6.49,0-9.74,0-12,0-44.54,4.72-81.56,48.47,0,0-75.09,66.59-77.93,93.51,0,0-12.94,47.47,48.29,71.18a43.8,43.8,0,0,0-5.06,12c-5.37,22.25-4,73.09,121.13,72,125.16,1.11,126.5-49.73,121.13-72a43.8,43.8,0,0,0-5.06-12C427.3,290.88,414.36,243.41,414.36,243.41Z" transform="translate(-13.5 -13.5)"/><path class="cls-2" d="M393.15,244.26c-2.47-23.44-67.87-81.44-67.87-81.44-32.24-38.1-60.62-42.18-71-42.22h-8.48c-10.43,0-38.8,4.12-71,42.22,0,0-65.4,58-67.87,81.44,0,0-11.25,41.34,42.06,62,.2-.33.39-.66.6-1,4.52-7.23,9.89-23.49,12.26-31.06a19.64,19.64,0,0,1,6.59-9.61C189.45,248,244.19,247.91,250.61,248s59.94,0,81,16.63a19.64,19.64,0,0,1,6.59,9.61c2.37,7.57,7.74,23.83,12.26,31.06.21.33.4.66.6,1C404.4,285.6,393.15,244.26,393.15,244.26Z" transform="translate(-13.5 -13.5)"/><path class="cls-3" d="M350.05,316.71a36.85,36.85,0,0,0-4.74-10.83c-4.28-6.85-9.37-22.26-11.62-29.44a18.68,18.68,0,0,0-6.24-9.1c-20-15.74-70.83-15.81-76.78-15.76s-57.95,0-77.94,15.76a18.62,18.62,0,0,0-6.24,9.1c-2.25,7.18-7.34,22.59-11.62,29.44a36.59,36.59,0,0,0-4.74,10.83c-4.44,18.36-3.33,60.32,100,59.41C353.38,377,354.49,335.07,350.05,316.71Z" transform="translate(-13.5 -13.5)"/><path class="cls-1" d="M246.55,385.74c-50.66,0-84.29-9.95-100-29.6-11.38-14.23-10.79-29.91-8.29-40.56a43.1,43.1,0,0,1,5.05-12.31l.18-.3c.21-.36.42-.71.65-1.07,2.88-4.61,7.18-15.57,11.49-29.31a26.4,26.4,0,0,1,8.77-12.95c22.27-17.58,75.6-18.09,86.21-18,10.46-.08,63,.45,85.19,18.18a25.74,25.74,0,0,1,8.47,12.5c4.35,13.88,8.69,24.95,11.6,29.61.23.36.45.73.67,1.1l.3.51a39.06,39.06,0,0,1,4.27,9.6c2.87,10.2,5.32,29.79-10.59,46.34h0a51.15,51.15,0,0,1-12.35,9.3l-6.68,3.68a54,54,0,0,1-6.69,3.11c-18.4,7-43.57,10.44-74.8,10.18ZM250,373.06h.06c29.69.26,53.29-2.88,70.23-9.35a40.45,40.45,0,0,0,5.09-2.37l6.69-3.68a38.74,38.74,0,0,0,9.32-7c10.95-11.4,10.13-24.85,7.52-34.13a26.06,26.06,0,0,0-2.92-6.48l-.35-.59c-.17-.29-.34-.58-.52-.86C340.33,301,335,285,332.18,276.09a13.16,13.16,0,0,0-4.29-6.4c-15.64-12.51-55.94-15.58-77.23-15.4h-.1c-21.66-.17-62.57,2.87-78.31,15.3a13.87,13.87,0,0,0-4.53,6.8c-2.75,8.77-8.09,24.63-12.84,32.23l-.5.82-.19.33a30.7,30.7,0,0,0-3.6,8.7c-1.86,7.92-2.35,19.5,5.85,29.76,9.3,11.62,33.05,25.36,93.5,24.83Z" transform="translate(-13.5 -13.5)"/><circle class="cls-4" cx="236.5" cy="317.95" r="14.12"/><path class="cls-4" d="M250,154.42a57.88,57.88,0,0,0-57.81,57.81,13.8,13.8,0,0,0,27.59,0A30.22,30.22,0,1,1,250,242.45a13.78,13.78,0,0,0-13.79,13.79v32.84h0a13.8,13.8,0,0,0,27.52,0h0V268.37a57.81,57.81,0,0,0-13.79-114Z" transform="translate(-13.5 -13.5)"/><circle class="cls-5" cx="236.5" cy="236.5" r="224"/></svg>