<svg id="레이어_1" data-name="레이어 1" xmlns="http://www.w3.org/2000/svg" viewBox="0 0 418 375.26"><defs><style>.cls-1{fill:#232323;}.cls-2{fill:#999;}.cls-3{fill:#707070;}.cls-4{fill:#fff;}</style></defs><title>char-warning</title><path class="cls-1" d="M457.56,240.83c-3.58-34-98.41-118.09-98.41-118.09-46.75-55.24-87.89-61.15-103-61.21h-12.3c-15.11.06-56.25,6-103,61.21,0,0-94.83,84.1-98.41,118.09,0,0-16.34,59.95,61,89.89A54.82,54.82,0,0,0,97,345.86c-6.79,28.09-5.1,92.3,153,90.9,158.06,1.4,159.75-62.81,153-90.9a54.82,54.82,0,0,0-6.38-15.14C473.9,300.78,457.56,240.83,457.56,240.83Z" transform="translate(-41 -61.52)"/><path class="cls-2" d="M430.77,241.91c-3.11-29.61-85.71-102.86-85.71-102.86-40.71-48.11-76.54-53.25-89.7-53.31H244.64c-13.16.06-49,5.2-89.7,53.31,0,0-82.6,73.25-85.71,102.86,0,0-14.21,52.19,53.11,78.27l.75-1.24c5.71-9.13,12.49-29.67,15.49-39.23a24.88,24.88,0,0,1,8.32-12.14c26.64-21,95.77-21.06,103.87-21,7.94-.06,75.69,0,102.33,21a24.88,24.88,0,0,1,8.32,12.14c3,9.56,9.78,30.1,15.49,39.23l.75,1.24C445,294.1,430.77,241.91,430.77,241.91Z" transform="translate(-41 -61.52)"/><path class="cls-3" d="M376.35,333.4a46.64,46.64,0,0,0-6-13.68c-5.41-8.66-11.84-28.12-14.68-37.18A23.56,23.56,0,0,0,347.8,271c-25.24-19.86-89.44-20-97-19.89-7.68-.06-73.18,0-98.42,19.89a23.56,23.56,0,0,0-7.88,11.5c-2.84,9.06-9.27,28.52-14.68,37.18a46.61,46.61,0,0,0-6,13.68c-5.61,23.18-4.21,76.17,126.23,75C380.55,409.57,382,356.58,376.35,333.4Z" transform="translate(-41 -61.52)"/><path class="cls-1" d="M245.65,420.57c-64,0-106.45-12.57-126.29-37.38-14.38-18-13.63-37.77-10.47-51.22a54.48,54.48,0,0,1,6.38-15.54l.22-.38c.27-.46.54-.91.82-1.35,3.64-5.83,9.07-19.66,14.52-37a33.35,33.35,0,0,1,11.07-16.35c28.13-22.21,95.48-22.85,108.87-22.76,13.21-.1,79.59.56,107.59,23a32.5,32.5,0,0,1,10.69,15.78c5.49,17.53,11,31.51,14.64,37.39.29.46.57.93.85,1.4l.38.64a48.75,48.75,0,0,1,5.39,12.12c3.63,12.88,6.72,37.62-13.37,58.52h0a64.55,64.55,0,0,1-15.59,11.75l-8.45,4.64a66.36,66.36,0,0,1-8.44,3.93c-23.24,8.87-55,13.19-94.46,12.85Zm4.35-16h.07c37.51.33,67.31-3.64,88.69-11.8a51.3,51.3,0,0,0,6.44-3l8.44-4.64a49,49,0,0,0,11.77-8.81c13.83-14.4,12.8-31.39,9.5-43.11a33,33,0,0,0-3.69-8.18l-.44-.74c-.22-.37-.43-.73-.66-1.09-6.05-9.69-12.83-29.9-16.33-41.08a16.67,16.67,0,0,0-5.43-8.08c-19.75-15.8-70.64-19.68-97.53-19.45h-.12c-27.36-.21-79,3.62-98.9,19.32a17.45,17.45,0,0,0-5.71,8.59c-3.49,11.08-10.22,31.1-16.22,40.7-.22.34-.43.69-.63,1l-.25.41a39,39,0,0,0-4.54,11c-2.34,10-3,24.63,7.39,37.57,11.74,14.68,41.74,32,118.08,31.36Z" transform="translate(-41 -61.52)"/><circle class="cls-4" cx="209" cy="290.49" r="17.84"/><path class="cls-4" d="M250,137.18A33.8,33.8,0,0,0,216.16,171c0,18.67,15.14,144,33.81,144s33.8-125.35,33.8-144A33.8,33.8,0,0,0,250,137.18Z" transform="translate(-41 -61.52)"/></svg>