<svg id="레이어_1" data-name="레이어 1" xmlns="http://www.w3.org/2000/svg" viewBox="0 0 74.5 85.42"><defs><style>.cls-1{fill:#413f42;}</style></defs><title>todo-trash</title><path class="cls-1" d="M18,28.74l3.63,56.74a7.73,7.73,0,0,0,7.71,7.23H72.2a7.73,7.73,0,0,0,7.71-7.23l3.63-56.74H18Zm17.4,55.38-.32,0a2.84,2.84,0,0,1-3-2.64L29.51,40.58a2.83,2.83,0,0,1,2.64-3l.32,0a2.83,2.83,0,0,1,3,2.64l2.6,40.92A2.84,2.84,0,0,1,35.42,84.12Zm28.16-3,2.6-40.92a2.83,2.83,0,0,1,3-2.64l.32,0a2.83,2.83,0,0,1,2.64,3L69.54,81.5a2.84,2.84,0,0,1-3,2.64l-.32,0A2.84,2.84,0,0,1,63.58,81.13Zm-9.78-41v41A2.83,2.83,0,0,1,51,84h-.32a2.83,2.83,0,0,1-2.82-2.82v-41a2.83,2.83,0,0,1,2.82-2.82H51A2.83,2.83,0,0,1,53.8,40.14Z" transform="translate(-12.75 -7.29)"/><path class="cls-1" d="M84.82,12.55H64.58a6,6,0,0,0-5.95-5.26H41.56a6,6,0,0,0-6,5.26H15.18A2.44,2.44,0,0,0,12.75,15v5.66a2.44,2.44,0,0,0,2.43,2.44H84.82a2.44,2.44,0,0,0,2.43-2.44V15A2.44,2.44,0,0,0,84.82,12.55Z" transform="translate(-12.75 -7.29)"/></svg>